<svg xmlns="http://www.w3.org/2000/svg"
     width="777" height="480" >
  <title>my vector image</title>
  <!-- Created with Vector Paint - http://www.vectorpaint.yaks.com/ https://chrome.google.com/webstore/detail/hnbpdiengicdefcjecjbnjnoifekhgdo -->
  <rect id="backgroundrect" width="100%" height="100%" x="0" y="0" fill="none" stroke="none"/>                                <g class="currentLayer" style=""><title>Layer 1</title><rect fill="#000000" stroke="#ffffff" stroke-width="10" stroke-linejoin="round" stroke-dashoffset="" fill-rule="nonzero" id="svg_7" x="289.1173095703125" y="400.9106140136719" width="211" height="30" style="color: rgb(0, 0, 0);" class="" stroke-opacity="1"/><rect fill="#000000" stroke="#ffffff" stroke-width="10" stroke-linejoin="round" stroke-dashoffset="" fill-rule="nonzero" id="svg_10" x="343.6201171875" y="363.9106140136719" width="106" height="31" style="color: rgb(0, 0, 0);" class="" stroke-opacity="1"/><rect fill="#000000" stroke="#ffffff" stroke-width="10" stroke-linejoin="round" stroke-dashoffset="" fill-rule="nonzero" id="svg_1" x="378.55866742134094" y="86.65921020507812" width="28" height="273.0167531967163" style="color: rgb(0, 0, 0);" class="" stroke-opacity="1"/><rect fill="#000000" stroke="#ffffff" stroke-width="10" stroke-linejoin="round" stroke-dashoffset="" fill-rule="nonzero" id="svg_3" x="385.76536297798157" y="133.10055541992188" width="8" height="0" style="color: rgb(0, 0, 0);" class="" stroke-opacity="1"/><rect fill="#000000" stroke="#ffffff" stroke-width="10" stroke-linejoin="round" stroke-dashoffset="" fill-rule="nonzero" id="svg_11" x="221.33234906196594" y="70.18801879882812" width="352.654296875" height="22" style="color: rgb(0, 0, 0);" class="" transform="rotate(12.739920616149902 397.6594848632812,81.18801879882807) " stroke-opacity="1"/><path fill="#000000" fill-opacity="1" stroke="#ffffff" stroke-opacity="1" stroke-width="10" stroke-dasharray="none" stroke-linejoin="round" stroke-linecap="butt" stroke-dashoffset="" fill-rule="nonzero" opacity="1" marker-start="" marker-mid="" marker-end="" d="M367.44134068489075,82.86591839790344 C367.44134068489075,69.60624988961615 378.4054290826808,58.86591839790344 391.94134068489075,58.86591839790344 C405.47725228710067,58.86591839790344 416.44134068489075,69.60624988961615 416.44134068489075,82.86591839790344 C416.44134068489075,96.12558690619073 405.47725228710067,106.86591839790344 391.94134068489075,106.86591839790344 C378.4054290826808,106.86591839790344 367.44134068489075,96.12558690619073 367.44134068489075,82.86591839790344 z" id="svg_5" class=""/><path fill="#000000" fill-opacity="1" stroke="#ffffff" stroke-opacity="1" stroke-width="10" stroke-dasharray="none" stroke-linejoin="round" stroke-linecap="butt" stroke-dashoffset="" fill-rule="nonzero" opacity="1" marker-start="" marker-mid="" marker-end="" d="M389.76536297798157,87.10055541992188 C389.76536297798157,87.10055541992188 389.76536297798157,87.10055541992188 389.76536297798157,87.10055541992188 C389.76536297798157,87.10055541992188 389.76536297798157,87.10055541992188 389.76536297798157,87.10055541992188 C389.76536297798157,87.10055541992188 389.76536297798157,87.10055541992188 389.76536297798157,87.10055541992188 C389.76536297798157,87.10055541992188 389.76536297798157,87.10055541992188 389.76536297798157,87.10055541992188 z" id="svg_8" class=""/><rect fill="#000000" stroke="#ffffff" stroke-width="10" stroke-linejoin="round" stroke-dashoffset="" fill-rule="nonzero" id="svg_17" x="186.8745083897628" y="46.49557446458053" width="20" height="124.70628461050546" style="color: rgb(0, 0, 0);" class="" transform="rotate(22.559587478637695 196.8745117187501,108.84870910644528) " stroke-opacity="1"/><rect fill="#000000" stroke="#ffffff" stroke-width="10" stroke-linejoin="round" stroke-dashoffset="" fill-rule="nonzero" x="521.3996504037895" y="126.27211331345748" width="20" height="124.70628461050546" style="color: rgb(0, 0, 0);" class="" transform="rotate(22.559587478637695 531.399658203125,188.62524414062497) " id="svg_27" stroke-opacity="1"/><rect fill="#000000" stroke="#ffffff" stroke-width="10" stroke-linejoin="round" stroke-dashoffset="" fill-rule="nonzero" x="253.91499443878" y="44.14054158506707" width="20" height="132.80478364101145" style="color: rgb(0, 0, 0);" class="" transform="rotate(-27.372867584228516 263.9149780273437,110.54292297363277) " id="svg_20" stroke-opacity="1"/><rect fill="#000000" stroke="#ffffff" stroke-width="10" stroke-linejoin="round" stroke-dashoffset="" fill-rule="nonzero" x="591.2334282003767" y="117.77182755050973" width="20" height="132.80478364101145" style="color: rgb(0, 0, 0);" class="" transform="rotate(-27.372867584228516 601.2334594726561,184.17420959472645) " id="svg_26" stroke-opacity="1"/><path fill="#000000" fill-opacity="1" stroke="#e76767" stroke-opacity="1" stroke-width="10" stroke-dasharray="none" stroke-linejoin="round" stroke-linecap="butt" stroke-dashoffset="" fill-rule="nonzero" opacity="1" marker-start="" marker-mid="" marker-end="" d="M209.76536297798157,40.43854397535324 C209.76536297798157,30.307058585612154 218.26812540892078,22.100555419921875 228.76536297798157,22.100555419921875 C239.26260054704235,22.100555419921875 247.76536297798157,30.307058585612154 247.76536297798157,40.43854397535324 C247.76536297798157,50.57002936509433 239.26260054704235,58.77653253078461 228.76536297798157,58.77653253078461 C218.26812540892078,58.77653253078461 209.76536297798157,50.57002936509433 209.76536297798157,40.43854397535324 z" id="svg_13" class=""/><path fill="#000000" fill-opacity="1" stroke="#ffffff" stroke-opacity="1" stroke-width="10" stroke-dasharray="none" stroke-linejoin="round" stroke-linecap="butt" stroke-dashoffset="" fill-rule="nonzero" opacity="1" marker-start="" marker-mid="" marker-end="" d="M209.76536297798157,40.43854397535324 C209.76536297798157,30.307058585612154 218.26812540892078,22.100555419921875 228.76536297798157,22.100555419921875 C239.26260054704235,22.100555419921875 247.76536297798157,30.307058585612154 247.76536297798157,40.43854397535324 C247.76536297798157,50.57002936509433 239.26260054704235,58.77653253078461 228.76536297798157,58.77653253078461 C218.26812540892078,58.77653253078461 209.76536297798157,50.57002936509433 209.76536297798157,40.43854397535324 z" class="" id="svg_29"/><path fill="#000000" fill-opacity="1" stroke="#ffffff" stroke-opacity="1" stroke-width="10" stroke-dasharray="none" stroke-linejoin="round" stroke-linecap="butt" stroke-dashoffset="" fill-rule="nonzero" opacity="1" marker-start="" marker-mid="" marker-end="" d="M544.2905094623566,119.65642505241976 C544.2905094623566,109.2162878768545 552.7932718932958,100.75977676464663 563.2905094623566,100.75977676464663 C573.7877470314173,100.75977676464663 582.2905094623566,109.2162878768545 582.2905094623566,119.65642505241976 C582.2905094623566,130.09656222798503 573.7877470314173,138.5530733401929 563.2905094623566,138.5530733401929 C552.7932718932958,138.5530733401929 544.2905094623566,130.09656222798503 544.2905094623566,119.65642505241976 z" class="" id="svg_16"/><path fill="#000000" fill-opacity="1" stroke="#e76767" stroke-opacity="1" stroke-width="10" stroke-dasharray="none" stroke-linejoin="round" stroke-linecap="butt" stroke-dashoffset="" fill-rule="nonzero" opacity="1" marker-start="" marker-mid="" marker-end="" id="svg_21" d="M172.1863067483761,190.7323647898077 " style="color: rgb(0, 0, 0);" class=""/><path fill="#000000" fill-opacity="1" stroke="#e76767" stroke-opacity="1" stroke-width="10" stroke-dasharray="none" stroke-linejoin="round" stroke-linecap="butt" stroke-dashoffset="" fill-rule="nonzero" opacity="1" marker-start="" marker-mid="" marker-end="" id="svg_2" d="M178.33155836256313,192.71305797379375 " style="color: rgb(0, 0, 0);" class=""/><path fill="#000000" fill-opacity="1" stroke="#e76767" stroke-opacity="1" stroke-width="10" stroke-dasharray="none" stroke-linejoin="round" stroke-linecap="butt" stroke-dashoffset="" fill-rule="nonzero" opacity="1" marker-start="" marker-mid="" marker-end="" id="svg_9" d="M263.8064217235286,183.46979470031386 " style="color: rgb(0, 0, 0);" class=""/><path fill="#000000" fill-opacity="1" stroke="#e76767" stroke-opacity="1" stroke-width="10" stroke-dasharray="none" stroke-linejoin="round" stroke-linecap="butt" stroke-dashoffset="" fill-rule="nonzero" opacity="1" marker-start="" marker-mid="" marker-end="" id="svg_4" d="M173.8622844613362,191.3417957318596 " style="color: rgb(0, 0, 0);" class=""/><path fill="#000000" fill-opacity="1" stroke="#e76767" stroke-opacity="1" stroke-width="10" stroke-dasharray="none" stroke-linejoin="round" stroke-linecap="butt" stroke-dashoffset="" fill-rule="nonzero" opacity="1" marker-start="" marker-mid="" marker-end="" id="svg_6" d="M183.91815073909683,193.373294718098 " style="color: rgb(0, 0, 0);" class=""/><path fill="#000000" fill-opacity="1" stroke="#e76767" stroke-opacity="1" stroke-width="10" stroke-dasharray="none" stroke-linejoin="round" stroke-linecap="butt" stroke-dashoffset="" fill-rule="nonzero" opacity="1" marker-start="" marker-mid="" marker-end="" id="svg_12" d="M180.56619531317662,194.03353146240235 " style="color: rgb(0, 0, 0);" class=""/><path fill="#d50b0b" stroke="#ffffff" stroke-width="10" stroke-linejoin="round" stroke-dashoffset="" fill-rule="nonzero" marker-start="" marker-mid="" marker-end="" id="svg_23" d="M291.4618345381526,248.76648071254135 C268.0893168649079,272.1389983858037 231.93346515784202,276.8987890472628 203.30822985022922,260.37273502699685 C174.68299454262063,243.84563096272996 160.72692816793187,210.15344258407595 169.28203915178443,178.22610342510774 C177.83718448287027,146.29898016302286 206.769582200042,124.09836068351785 239.82275991157968,124.09836068351785 L291.4618345381526,248.76648561929852 L291.4618345381526,248.76648071254135 z" style="color: rgb(0, 0, 0);" class="" transform="rotate(-67.3614730834961 229.12437438964852,197.12821960449224) " fill-opacity="1" stroke-opacity="1"/><path fill="#4141e8" stroke="#ffffff" stroke-width="10" stroke-linejoin="round" stroke-dashoffset="" fill-rule="nonzero" marker-start="" marker-mid="" marker-end="" d="M628.2216306807306,316.8111737057054 C604.849113007486,340.18369137896775 568.6932613004201,344.9434820404269 540.0680259928074,328.4174280201609 C511.4427906851988,311.890323955894 497.48672431051,278.19813557724 506.04183529436256,246.2707964182718 C514.5969806254484,214.34367315618692 543.5293783426201,192.14305367668192 576.5825560541577,192.14305367668192 L628.2216306807306,316.8111786124626 L628.2216306807306,316.8111737057054 z" style="color: rgb(0, 0, 0);" class="selected" transform="rotate(-67.72161865234375 565.8842163085938,265.17291259765625) " fill-opacity="1" id="svg_28" stroke-opacity="1"/></g></svg>
